<svg width="76" height="76" viewBox="0 0 76 76" fill="none" xmlns="http://www.w3.org/2000/svg">
<g id="account_circle_24px">
<path id="icon/action/account_circle_24px" fill-rule="evenodd" clip-rule="evenodd" d="M38 6.33331C20.52 6.33331 6.33337 20.52 6.33337 38C6.33337 55.48 20.52 69.6667 38 69.6667C55.48 69.6667 69.6667 55.48 69.6667 38C69.6667 20.52 55.48 6.33331 38 6.33331ZM22.3884 57.8866C23.7501 55.0366 32.0467 52.25 38.0001 52.25C43.9534 52.25 52.2817 55.0366 53.6117 57.8866C49.3051 61.3066 43.8901 63.3333 38.0001 63.3333C32.1101 63.3333 26.6951 61.3066 22.3884 57.8866ZM38 45.9166C42.6234 45.9166 53.6117 47.785 58.14 53.295C61.37 49.0516 63.3334 43.7633 63.3334 38C63.3334 24.035 51.965 12.6666 38 12.6666C24.035 12.6666 12.6667 24.035 12.6667 38C12.6667 43.7633 14.63 49.0516 17.86 53.295C22.3884 47.785 33.3767 45.9166 38 45.9166ZM38 19C31.8567 19 26.9167 23.94 26.9167 30.0833C26.9167 36.2266 31.8567 41.1666 38 41.1666C44.1434 41.1666 49.0834 36.2266 49.0834 30.0833C49.0834 23.94 44.1434 19 38 19ZM33.25 30.0833C33.25 32.7116 35.3717 34.8333 38 34.8333C40.6284 34.8333 42.75 32.7116 42.75 30.0833C42.75 27.455 40.6284 25.3333 38 25.3333C35.3717 25.3333 33.25 27.455 33.25 30.0833Z" fill="black" fill-opacity="0.54"/>
</g>
</svg>
