<svg width="76" height="76" viewBox="0 0 76 76" fill="none" xmlns="http://www.w3.org/2000/svg">
<g id="notifications_24px">
<path id="icon/social/notifications_24px" fill-rule="evenodd" clip-rule="evenodd" d="M57 49.875V34.0417C57 24.32 51.8383 16.1817 42.75 14.0283V11.875C42.75 9.24667 40.6283 7.125 38 7.125C35.3716 7.125 33.25 9.24667 33.25 11.875V14.0283C24.1933 16.1817 19 24.2883 19 34.0417V49.875L12.6666 56.2083V59.375H63.3333V56.2083L57 49.875ZM38 68.875C41.4833 68.875 44.3333 66.025 44.3333 62.5417H31.6666C31.6666 66.025 34.5166 68.875 38 68.875ZM25.3333 53.0417H50.6666V34.0417C50.6666 26.1883 45.885 19.7917 38 19.7917C30.115 19.7917 25.3333 26.1883 25.3333 34.0417V53.0417Z" fill="black" fill-opacity="0.54"/>
</g>
</svg>
