<?xml version="1.0" encoding="UTF-8" standalone="no"?>
<svg
   xmlns:dc="http://purl.org/dc/elements/1.1/"
   xmlns:cc="http://creativecommons.org/ns#"
   xmlns:rdf="http://www.w3.org/1999/02/22-rdf-syntax-ns#"
   xmlns:svg="http://www.w3.org/2000/svg"
   xmlns="http://www.w3.org/2000/svg"
   xmlns:sodipodi="http://sodipodi.sourceforge.net/DTD/sodipodi-0.dtd"
   xmlns:inkscape="http://www.inkscape.org/namespaces/inkscape"
   version="1.1"
   x="0px"
   y="0px"
   viewBox="0 0 131.73505 132.20443"
   id="svg14"
   sodipodi:docname="noun_1101884_cc.svg"
   width="131.73505"
   height="132.20442"
   inkscape:version="0.92.1 r15371">
  <metadata
     id="metadata20">
    <rdf:RDF>
      <cc:Work
         rdf:about="">
        <dc:format>image/svg+xml</dc:format>
        <dc:type
           rdf:resource="http://purl.org/dc/dcmitype/StillImage" />
        <dc:title></dc:title>
      </cc:Work>
    </rdf:RDF>
  </metadata>
  <defs
     id="defs18" />
  <sodipodi:namedview
     pagecolor="#ffffff"
     bordercolor="#666666"
     borderopacity="1"
     objecttolerance="10"
     gridtolerance="10"
     guidetolerance="10"
     inkscape:pageopacity="0"
     inkscape:pageshadow="2"
     inkscape:window-width="640"
     inkscape:window-height="480"
     id="namedview16"
     showgrid="false"
     fit-margin-top="10"
     fit-margin-left="10"
     fit-margin-bottom="10"
     fit-margin-right="10"
     inkscape:zoom="1.888"
     inkscape:cx="54"
     inkscape:cy="65.519609"
     inkscape:window-x="0"
     inkscape:window-y="0"
     inkscape:window-maximized="0"
     inkscape:current-layer="svg14" />
  <g
     transform="matrix(1.2697164,0,0,1.2697164,2.3817015,-1206.6135)"
     id="g8">
    <path
       style="color:#000000;text-indent:0;text-transform:none;direction:ltr;baseline-shift:baseline;display:inline;overflow:visible;visibility:visible;fill:#000000;fill-opacity:1;fill-rule:evenodd;stroke:none;enable-background:accumulate"
       d="m 49.9204,972.33733 c -10.4006,0 -18.9432,8.19879 -18.9432,18.34 a 2.000005,2.000005 0 1 0 3.9997,0 c 0,-7.89879 6.6287,-14.34031 14.9435,-14.34031 4.1488,0 8.3207,1.69029 11.1822,4.30812 2.8614,2.61783 4.397,5.99377 3.7787,9.70344 a 2.000005,2.000005 0 0 0 0,0.002 c -1.3356,8.06823 -4.9646,9.41551 -9.1253,11.96972 -2.0804,1.2771 -4.3317,2.8189 -5.8628,5.4925 -1.5312,2.6736 -2.2368,6.2907 -1.8369,11.4684 a 2.000005,2.000005 0 1 0 3.9878,-0.3082 c -0.3616,-4.6823 0.2927,-7.3788 1.32,-9.1728 1.0273,-1.7939 2.533,-2.8732 4.4844,-4.0712 3.9025,-2.3956 9.4365,-5.4131 10.9784,-14.72311 0,-7.3e-4 0,-10e-4 0,-0.002 0.8641,-5.18949 -1.3881,-9.98298 -5.0243,-13.30969 -3.6368,-3.32716 -8.6734,-5.35687 -13.8822,-5.35687 z"
       marker="none"
       visibility="visible"
       display="inline"
       overflow="visible"
       id="path2"
       inkscape:connector-curvature="0" />
    <path
       style="color:#000000;text-indent:0;text-transform:none;direction:ltr;baseline-shift:baseline;display:inline;overflow:visible;visibility:visible;fill:#000000;fill-opacity:1;fill-rule:evenodd;stroke:none;enable-background:accumulate"
       d="m 50,1024.7173 c -2.1788,0 -3.9906,1.8258 -3.9906,4 0,2.1738 1.7998,3.9997 3.9906,3.9997 2.1908,0 3.991,-1.8138 3.991,-3.9997 0,-2.1862 -1.8123,-4 -3.991,-4 z"
       marker="none"
       visibility="visible"
       display="inline"
       overflow="visible"
       id="path4"
       inkscape:connector-curvature="0" />
    <path
       style="color:#000000;text-indent:0;text-transform:none;direction:ltr;baseline-shift:baseline;display:inline;overflow:visible;visibility:visible;fill:#000000;fill-opacity:1;fill-rule:evenodd;stroke:none;enable-background:accumulate"
       d="m 50,958.17733 c -24.2809,0 -43.9999999,19.814 -43.9999999,44.18997 0,24.376 19.7196999,44.1797 43.9999999,44.1797 24.2803,0 44,-19.8037 44,-44.1797 0,-24.37598 -19.7191,-44.18997 -44,-44.18997 z m 0,3.99969 c 22.1094,0 40.0004,17.96632 40.0004,40.19028 0,22.224 -17.8904,40.18 -40.0004,40.18 -22.11,0 -40.0003002,-17.956 -40.0003002,-40.18 C 9.9996998,980.14333 27.8906,962.17702 50,962.17702 Z"
       marker="none"
       visibility="visible"
       display="inline"
       overflow="visible"
       id="path6"
       inkscape:connector-curvature="0" />
  </g>
</svg>
