<svg width="76" height="76" viewBox="0 0 76 76" fill="none" xmlns="http://www.w3.org/2000/svg">
<g id="group_24px">
<path id="icon/social/group_24px" fill-rule="evenodd" clip-rule="evenodd" d="M28.5 38C34.6117 38 39.5834 33.0283 39.5834 26.9166C39.5834 20.805 34.6117 15.8333 28.5 15.8333C22.3884 15.8333 17.4167 20.805 17.4167 26.9166C17.4167 33.0283 22.3884 38 28.5 38ZM6.33337 54.625C6.33337 47.2466 21.09 43.5416 28.5 43.5416C35.91 43.5416 50.6667 47.2466 50.6667 54.625V60.1666H6.33337V54.625ZM28.5001 49.875C22.8318 49.875 16.4034 51.9966 13.7434 53.8333H43.2568C40.5968 51.9966 34.1684 49.875 28.5001 49.875ZM33.25 26.9166C33.25 24.2883 31.1284 22.1666 28.5 22.1666C25.8717 22.1666 23.75 24.2883 23.75 26.9166C23.75 29.545 25.8717 31.6666 28.5 31.6666C31.1284 31.6666 33.25 29.545 33.25 26.9166ZM50.7933 43.7316C54.4667 46.3916 57 49.9383 57 54.625V60.1666H69.6667V54.625C69.6667 48.2283 58.5833 44.5866 50.7933 43.7316ZM58.5834 26.9166C58.5834 33.0283 53.6117 38 47.5 38C45.79 38 44.2067 37.5883 42.75 36.8916C44.745 34.0733 45.9167 30.6216 45.9167 26.9166C45.9167 23.2116 44.745 19.76 42.75 16.9416C44.2067 16.245 45.79 15.8333 47.5 15.8333C53.6117 15.8333 58.5834 20.805 58.5834 26.9166Z" fill="black" fill-opacity="0.54"/>
</g>
</svg>
