<svg width="9" height="11" viewBox="0 0 9 11" fill="none" xmlns="http://www.w3.org/2000/svg">
    <path d="M7.70833 8.92105C7.70833 9.33982 7.53713 9.74143 7.23238 10.0375C6.92764 10.3336 6.51431 10.5 6.08333 10.5H2.29167C1.86069 10.5 1.44736 10.3336 1.14262 10.0375C0.837872 9.74143 0.666667 9.33982 0.666667 8.92105V2.60526H0.125V1.02632H2.5625L3.10417 0.5H5.27083L5.8125 1.02632H8.25V2.60526H7.70833V8.92105ZM1.20833 2.60526V8.92105C1.20833 9.20023 1.32247 9.46797 1.52563 9.66538C1.7288 9.86278 2.00435 9.97368 2.29167 9.97368H6.08333C6.37065 9.97368 6.6462 9.86278 6.84937 9.66538C7.05253 9.46797 7.16667 9.20023 7.16667 8.92105V2.60526H1.20833ZM7.70833 2.07895V1.55263H5.54167L5 1.02632H3.375L2.83333 1.55263H0.666667V2.07895H7.70833ZM2.29167 3.65789H2.83333V8.92105H2.29167V3.65789ZM5.54167 3.65789H6.08333V8.92105H5.54167V3.65789Z" fill="#5E5E5E" />
</svg>