<svg width="18" height="22" viewBox="0 0 18 22" fill="none" xmlns="http://www.w3.org/2000/svg">
<path d="M17.0297 5.76641C17.1703 5.90703 17.25 6.09687 17.25 6.29609V20.75C17.25 21.1648 16.9148 21.5 16.5 21.5H1.5C1.08516 21.5 0.75 21.1648 0.75 20.75V1.25C0.75 0.835156 1.08516 0.5 1.5 0.5H11.4539C11.6531 0.5 11.8453 0.579688 11.9859 0.720313L17.0297 5.76641ZM15.5203 6.64062L11.1094 2.22969V6.64062H15.5203ZM6.98742 13.0843L8.37281 16.2008C8.40228 16.2671 8.45033 16.3234 8.51115 16.3629C8.57197 16.4024 8.64294 16.4234 8.71547 16.4234H9.27938C9.35197 16.4235 9.42301 16.4024 9.48388 16.3628C9.54475 16.3233 9.59282 16.2669 9.62226 16.2005L11.0074 13.0752V16.7656C11.0074 16.8149 11.0171 16.8637 11.036 16.9092C11.0548 16.9547 11.0825 16.996 11.1173 17.0309C11.1522 17.0657 11.1936 17.0933 11.2391 17.1121C11.2846 17.131 11.3334 17.1407 11.3827 17.1406H12.0234C12.1229 17.1406 12.2183 17.1011 12.2886 17.0308C12.3589 16.9605 12.3984 16.8651 12.3984 16.7656V10.3906C12.3984 10.2912 12.3589 10.1958 12.2886 10.1255C12.2183 10.0551 12.1229 10.0156 12.0234 10.0156H11.209C11.1359 10.0156 11.0645 10.037 11.0034 10.077C10.9423 10.1171 10.8943 10.1741 10.8652 10.2411L9.00234 14.5203L7.13953 10.2409C7.11037 10.1739 7.0623 10.1169 7.00122 10.0769C6.94015 10.0369 6.86872 10.0156 6.7957 10.0156H5.97656C5.87711 10.0156 5.78172 10.0551 5.7114 10.1255C5.64107 10.1958 5.60156 10.2912 5.60156 10.3906V16.7656C5.60156 16.8651 5.64107 16.9605 5.7114 17.0308C5.78172 17.1011 5.87711 17.1406 5.97656 17.1406H6.61242C6.71188 17.1406 6.80726 17.1011 6.87759 17.0308C6.94791 16.9605 6.98742 16.8651 6.98742 16.7656V13.0843Z" fill="#787878"/>
</svg>
